<svg id="Capa_1" enable-background="new 0 0 512 512" height="512" viewBox="0 0 512 512" width="512" xmlns="http://www.w3.org/2000/svg"><g><path d="m37.043 287.366c-14.214-17.589-22.043-39.727-22.043-62.336v-60.629c0-4.143-3.358-7.5-7.5-7.5s-7.5 3.357-7.5 7.5v60.629c0 26.029 9.012 51.516 25.377 71.765l89.852 111.162c7.313 9.042 11.341 20.429 11.341 32.062v64.48c0 4.143 3.358 7.5 7.5 7.5s7.5-3.357 7.5-7.5v-64.48c0-15.056-5.213-29.793-14.677-41.494zm436.709-242.357c-21.956-.491-40.12 17.293-40.042 39.13v95.493c-7.951-2.195-16.539-1.444-24.074 2.305l-76.849 38.278c-12.231 6.09-23.641 13.774-33.908 22.839-.135.119-.265.245-.4.365-2.239-4.233-4.229-8.59-5.942-13.03-2.677-6.937-4.579-13.805-5.869-20.517 5.255 2.011 10.84 3.035 16.476 3.035 20.644 0 38.659-13.733 44.359-33.228 23.954-5.855 40.926-27.207 40.926-52.282 0-18.359-9.237-35.21-24.413-45.101 3.307-15.055-1.282-30.965-12.113-42.087-9.159-9.404-21.86-14.532-34.839-14.007-6.153.235-12.083 1.664-17.551 4.195-6.57-17.596-23.365-30.057-42.707-30.393-19.807-.319-37.484 12.381-44.295 30.406-17.502-8.157-38.861-4.121-52.414 9.794-10.837 11.127-15.432 27.017-12.113 42.092-15.178 9.892-24.413 26.74-24.413 45.1 0 25.073 16.972 46.425 40.923 52.282 5.689 19.487 23.704 33.228 44.354 33.228 5.633 0 11.243-1.048 16.483-3.042-1.29 6.714-3.192 13.585-5.869 20.524-1.713 4.439-3.704 8.796-5.942 13.03-.134-.119-.262-.243-.397-.362-10.271-9.067-21.68-16.752-33.91-22.841l-76.854-38.281c-7.531-3.746-16.117-4.498-24.07-2.302v-95.493c.104-21.796-18.482-39.601-40.044-39.128-21.088.463-38.245 18.299-38.245 39.758v44.632c0 4.143 3.358 7.5 7.5 7.5s7.5-3.357 7.5-7.5v-44.632c0-13.368 10.576-24.476 23.576-24.762 13.299-.293 24.787 10.721 24.714 24.132v104.226c-13.655 13.49-12.863 36.951 2.047 49.526l77.03 65.829c3.149 2.692 7.883 2.321 10.574-.829 2.691-3.148 2.32-7.883-.829-10.573l-77.032-65.832c-8.885-7.471-8.598-21.739.377-28.915 5.708-4.563 13.663-5.482 20.219-2.208l76.851 38.28c11.061 5.507 21.379 12.457 30.672 20.661 9.258 8.164 17.436 17.54 24.305 27.868 13.735 20.655 20.995 44.687 20.995 69.497v152.831c0 4.143 3.358 7.5 7.5 7.5s7.5-3.357 7.5-7.5v-152.83c0-24.811 7.26-48.842 20.995-69.497 6.87-10.328 15.048-19.704 24.309-27.871 9.29-8.201 19.608-15.151 30.67-20.659l76.847-38.277c5.472-2.722 11.949-2.613 17.324.293 6.178 3.338 9.866 9.533 9.866 16.572 0 5.565-2.34 10.628-6.592 14.259l-77.03 65.829c-3.149 2.69-3.52 7.425-.829 10.573 2.691 3.149 7.425 3.52 10.574.829l77.028-65.826c7.531-6.431 11.85-15.784 11.85-25.664 0-9.067-3.617-17.569-9.8-23.81v-104.282c-.071-13.398 11.337-24.433 24.708-24.134 13.002.291 23.581 11.402 23.581 24.767v140.259c0 22.613-7.829 44.752-22.044 62.338l-31.692 39.206c-2.604 3.222-2.104 7.943 1.118 10.548 3.202 2.589 7.93 2.119 10.547-1.118l31.693-39.206c16.365-20.248 25.378-45.735 25.378-71.768v-140.259c0-21.454-17.158-39.291-38.248-39.763zm-250.599 149.438c-4.444 2.297-9.257 3.461-14.304 3.461-14.924 0-27.809-10.618-30.635-25.237-.683-3.56-3.434-6.277-7.009-6.924-.04-.007-.081-.014-.121-.021-18.84-3.089-32.514-19.208-32.514-38.328 0-14.488 7.975-27.676 20.815-34.417 3.822-2.009 5.584-6.433 4.192-10.507-3.765-11.022-.931-23.388 7.264-31.802 11.12-11.417 29.353-12.617 41.776-2.662 2.128 1.705 5.013 2.119 7.536 1.087 2.522-1.035 4.285-3.357 4.603-6.065 1.876-15.992 15.829-28.333 31.789-28.027 15.658.271 28.854 12.32 30.695 28.026.318 2.709 2.081 5.032 4.604 6.066 2.525 1.034 5.411.618 7.538-1.089 5.238-4.202 11.55-6.56 18.257-6.816 8.74-.329 17.317 3.119 23.517 9.484 8.271 8.492 11.173 20.741 7.294 31.71-1.429 4.042.36 8.597 4.166 10.597 12.837 6.739 20.812 19.927 20.812 34.415 0 19.12-13.674 35.239-32.514 38.328-.04.007-.081.014-.121.021-3.575.646-6.326 3.364-7.006 6.911-2.834 14.631-15.722 25.25-30.644 25.25-5.014 0-9.954-1.196-14.387-3.505-1.355-.706-2.746-1.305-4.156-1.833-1.393-27.917 6.558-51.219 11.151-62.111 1.716-4.077.937-8.854-1.989-12.172l-10.91-12.36c-2.335-2.646-5.69-4.076-9.227-3.912-3.517.159-6.727 1.876-8.794 4.696-1.974 2.678-3.833 5.556-5.521 8.547-1.014 1.793-1.963 3.622-2.846 5.487-.894-2.18-1.865-4.323-2.913-6.429-1.442-2.896-3.042-5.743-4.748-8.449-1.963-3.133-5.205-5.099-8.895-5.393-3.647-.281-7.266 1.181-9.698 3.962l-12.056 13.908c-2.878 3.328-3.626 8.085-1.918 12.088 4.594 10.898 12.552 34.223 11.156 62.156-1.44.536-2.86 1.145-4.239 1.859zm48.852 79.419c-6.763 10.171-12.121 21.074-16.005 32.46-3.884-11.386-9.242-22.289-16.005-32.46-4.604-6.922-9.748-13.451-15.36-19.536 3.404-5.962 6.366-12.175 8.823-18.541 14.993-38.852 7.998-82.874-2.584-109.214l7.584-8.749c4.259 7.692 7.245 15.964 8.918 24.694.803 4.19 4.342 7.146 8.606 7.188h.093c4.232 0 7.791-2.88 8.664-6.99 1.803-8.491 5.131-16.407 9.753-23.6l6.62 7.5c-9.368 22.367-15.914 74.586-2.568 109.17 2.456 6.365 5.419 12.578 8.823 18.541-5.614 6.087-10.758 12.615-15.362 19.537zm159.948 78.632c-3.22-2.603-7.943-2.103-10.547 1.118l-36.303 44.909c-9.462 11.706-14.673 26.441-14.673 41.493v64.482c0 4.143 3.358 7.5 7.5 7.5s7.5-3.357 7.5-7.5v-64.481c0-11.631 4.027-23.018 11.338-32.063l36.302-44.909c2.605-3.223 2.104-7.945-1.117-10.549z"/></g></svg>