<svg id="Capa_1" enable-background="new 0 0 512 512" height="512" viewBox="0 0 512 512" width="512" xmlns="http://www.w3.org/2000/svg"><g><path d="m286 402h-20v-20c0-5.522-4.477-10-10-10s-10 4.478-10 10v20h-20c-5.523 0-10 4.478-10 10s4.477 10 10 10h20v20c0 5.522 4.477 10 10 10s10-4.478 10-10v-20h20c5.523 0 10-4.478 10-10s-4.477-10-10-10z"/><circle cx="383" cy="70" r="10"/><path d="m446 205c0-35.438-9.674-71.215-27.977-103.461-2.726-4.803-8.831-6.485-13.633-3.761-4.803 2.727-6.487 8.83-3.761 13.634 12.78 22.517 20.905 46.884 23.973 71.504-12.647-8.691-30.359-17.916-48.602-17.916-24.759 0-48.542 16.983-60 26.571-11.458-9.588-35.241-26.571-60-26.571s-48.542 16.983-60 26.571c-11.458-9.588-35.241-26.571-60-26.571-18.275 0-36.016 9.257-48.669 17.962 10.714-89.046 84.935-162.962 168.669-162.962 30.552 0 60.859 9.813 87.645 28.381 4.54 3.146 10.77 2.018 13.916-2.522 3.146-4.539 2.017-10.769-2.522-13.915-30.149-20.898-64.396-31.944-99.039-31.944-106.177 0-190 101.284-190 205 0 2.283.777 4.409 2.074 6.097l87.926 114.304v176.599c0 5.522 4.477 10 10 10h180c5.523 0 10-4.478 10-10v-176.599l87.926-114.304c1.359-1.766 2.074-3.962 2.074-6.097zm-23.604 1.285-81.32 105.715h-42.189l26.091-101.754c9.131-8.447 31.351-25.246 51.022-25.246 17.936 0 36.761 13.333 46.396 21.285zm-117.574 2.049-26.581 103.666h-44.482l-26.593-103.714c10.154-8.836 30.589-23.286 48.834-23.286 19.593 0 40.248 15.909 48.822 23.334zm-117.788 1.961 26.079 101.705h-42.189l-81.348-105.752c10.749-8.851 29.526-21.248 46.424-21.248 21.564 0 44.424 19.277 51.034 25.295zm148.966 281.705h-160v-160h160z"/></g></svg>